<svg width="705" height="748" viewBox="0 0 705 748" fill="none" xmlns="http://www.w3.org/2000/svg">
<path opacity="0.41" d="M274.356 487.292C268.622 487.267 262.88 487.023 257.133 486.523C194.146 481.045 121.177 449.134 89.8142 391.032C62.3953 340.238 51.63 274.477 64.1141 217.828C75.8496 164.578 112.233 121.442 163.181 105.063C220.478 86.6424 283.803 109.024 340.184 83.8673C422.244 47.2527 525.384 76.3305 582.895 145.995C633.885 207.759 646.227 307.352 630.221 384.518C622.132 423.519 600.852 461.079 566.979 480.714C540.029 496.337 507.451 499.417 476.632 495.345C451.853 492.072 429.039 483.497 405.202 476.44C386.095 470.784 370.417 473.728 350.86 477.834C325.692 483.118 300.1 487.406 274.356 487.292Z" fill="#AFAFAF"/>
<path d="M288.417 450.027C283.777 450.006 279.131 449.808 274.481 449.404C223.512 444.972 164.468 419.149 139.091 372.136C116.905 331.035 108.192 277.822 118.295 231.983C127.791 188.894 157.232 153.989 198.458 140.736C244.821 125.832 296.063 143.942 341.684 123.586C408.085 93.9592 491.544 117.488 538.081 173.858C579.341 223.836 589.328 304.424 576.376 366.866C569.83 398.424 552.61 428.816 525.201 444.705C503.393 457.347 477.033 459.839 452.094 456.545C432.042 453.895 413.583 446.958 394.294 441.247C378.833 436.669 366.146 439.052 350.322 442.375C329.957 446.65 309.248 450.118 288.417 450.027Z" stroke="white" stroke-width="1.9456" stroke-miterlimit="10" stroke-dasharray="3.85 3.85"/>
<path opacity="0.87" d="M586.165 658.447C599.864 658.447 610.97 657.551 610.97 656.446C610.97 655.342 599.864 654.446 586.165 654.446C572.466 654.446 561.36 655.342 561.36 656.446C561.36 657.551 572.466 658.447 586.165 658.447Z" fill="#515159"/>
<path d="M589.314 580.776C589.314 580.776 568.076 565.467 581.718 543.216C595.36 520.964 591.949 513.231 587.175 506.966C598.769 520.964 596.228 536.913 589.314 547.03C582.399 557.146 581.304 570.914 589.314 580.776Z" fill="#AFAFAF"/>
<path d="M606.641 599.771H565.689L569.687 654.777H602.644L606.641 599.771Z" fill="#FEFEFE"/>
<path d="M610.97 596.957H561.36V603.407H610.97V596.957Z" fill="#8B8B8C"/>
<path d="M601.228 591.155H571.104C568.113 591.155 565.689 593.727 565.689 596.9V596.958H606.643V596.9C606.641 593.727 604.217 591.155 601.228 591.155Z" fill="#5A5A63"/>
<path d="M604.364 631.109L605.333 617.784H566.998L567.966 631.109H604.364Z" fill="#EDB62B"/>
<path d="M606.641 596.956V596.898C606.641 593.725 604.217 591.153 601.227 591.153H586.308C589.298 591.153 591.722 593.725 591.722 596.898V596.956H596.049V603.407H591.457L587.725 654.775H602.644L606.378 603.407H610.97V596.956H606.641Z" fill="#AFAFAF"/>
<path d="M386.781 254.901C386.781 254.901 395.364 226.343 382.825 218.051C374.854 213.705 370.499 219.119 370.499 219.119C370.499 219.119 366.751 198.928 340.924 205.598C324.194 209.919 318.918 200.769 318.918 200.769C318.918 200.769 318.762 226.08 330.283 233.607C338.624 241.196 335.425 261.71 335.425 261.71L386.781 254.901Z" fill="#2F2F35"/>
<path opacity="0.87" d="M462.866 628.084C462.866 628.084 509.364 629.566 522.34 642.275C535.988 655.642 550.305 676.514 491.556 676.111C432.807 675.709 380.725 658.553 331.452 663.998C282.178 669.442 241.743 678.83 229.964 676.747C218.185 674.665 302.143 631.991 302.143 631.991L458.02 638.061L462.866 628.084Z" fill="#515159"/>
<path d="M419.376 517.116L360.76 510.869L302.143 517.116C302.143 517.116 298.662 546.502 287.343 562.179C360.76 590.154 360.76 590.154 360.76 590.154C360.76 590.154 360.76 590.154 434.177 562.179C422.859 546.502 419.376 517.116 419.376 517.116Z" fill="#A87D1D"/>
<path d="M358.445 589.272C360.757 590.153 360.76 590.154 360.76 590.154C360.76 590.154 360.763 590.153 363.072 589.273C376.58 556.303 373.348 519.313 372.547 512.126L360.761 510.869L345.676 512.477C345.374 520.378 344.87 556.512 358.445 589.272Z" fill="#A87D1D"/>
<path d="M301.811 519.515C301.813 519.516 363.491 548.378 423.058 535.834C420.382 525.575 419.378 517.116 419.378 517.116L360.761 510.869L313.674 515.888L301.811 519.515Z" fill="#895436"/>
<path d="M330.281 233.605C338.623 241.194 335.423 261.709 335.423 261.709L346.335 260.262C357.542 249.681 370.193 236.284 368.355 231.238C365.136 222.394 355.839 213.566 338.695 212.556C321.55 211.546 318.917 200.768 318.917 200.768C318.917 200.768 318.76 226.079 330.281 233.605Z" fill="#515159"/>
<path d="M358.632 305.266L310.173 324.01L302.143 517.118C302.143 517.118 319.273 525.638 360.76 525.638C360.76 324.925 360.76 308.266 360.76 308.266L358.632 305.266Z" fill="white"/>
<path d="M362.887 305.266L411.346 324.01L419.376 517.118C419.376 517.118 402.246 525.638 360.76 525.638C360.76 324.925 360.76 308.266 360.76 308.266L362.887 305.266Z" fill="white"/>
<path d="M310.173 324.01L309.949 324.095C295.794 329.458 284.483 341.001 278.881 355.8L226.865 489.376L271.096 494.968L308.54 397.601L310.173 324.01Z" fill="#FF7E6E"/>
<path d="M411.346 324.01L411.572 324.095C425.727 329.458 437.038 341.001 442.64 355.8L494.656 489.376L450.425 494.968L412.981 397.601L411.346 324.01Z" fill="#FF7E6E"/>
<path d="M462.838 407.666L442.64 355.798C437.038 341 425.727 329.458 411.572 324.094L411.346 324.008L412.981 397.598L423.588 425.181C437.749 412.598 451.956 408.513 462.838 407.666Z" fill="#E8E8E8"/>
<path d="M258.681 407.666L278.88 355.798C284.482 341 295.793 329.458 309.948 324.094L310.173 324.008L308.539 397.598L297.932 425.181C283.771 412.598 269.564 408.513 258.681 407.666Z" fill="#E8E8E8"/>
<path d="M414.513 400.143C414.513 400.143 413.201 398.192 411.348 394.537L412.982 397.598C412.982 397.598 394.545 506.172 345.258 525.205C349.997 525.475 355.148 525.635 360.761 525.635C402.248 525.635 419.378 517.115 419.378 517.115L414.513 400.143Z" fill="#D3D3D3"/>
<path opacity="0.52" d="M287.343 385.917C299.842 348.716 300.537 349.001 327.839 342.185C355.14 335.369 349.772 308.695 349.772 308.695L324.318 318.539L320.382 320.062L310.173 324.01L309.948 324.095C295.793 329.458 284.482 341.001 278.88 355.798L229.019 483.84C250.076 467.394 276.696 417.601 287.343 385.917Z" fill="#FFF6E7"/>
<path opacity="0.28" d="M434.177 385.917C421.677 348.716 420.982 349.001 393.68 342.185C366.38 335.369 371.748 308.695 371.748 308.695L397.201 318.539L401.138 320.062L411.345 324.01L411.571 324.095C425.726 329.458 437.037 341.001 442.639 355.798L492.499 483.84C471.443 467.394 444.824 417.601 434.177 385.917Z" fill="#4C2A29"/>
<path d="M360.891 329.09H360.629C353.466 329.09 347.658 322.93 347.658 315.329V282.472H373.86V315.329C373.862 322.93 368.054 329.09 360.891 329.09Z" fill="#FF7E6E"/>
<path d="M373.651 307.814C373.726 307.814 373.788 307.805 373.862 307.804V282.472H361.63L347.658 287.829C347.658 287.829 352.858 307.814 373.651 307.814Z" fill="#4C2A29"/>
<path d="M391.238 262.734C391.238 267.664 387.472 271.66 382.825 271.66C378.179 271.66 374.411 267.664 374.411 262.734C374.411 257.803 378.179 253.807 382.825 253.807C387.471 253.807 391.238 257.803 391.238 262.734Z" fill="#C64F4F"/>
<path d="M384.462 271.485C385.677 266.31 386.391 259.691 386.78 254.9C385.596 254.226 384.262 253.807 382.824 253.807C378.178 253.807 374.41 257.804 374.41 262.734C374.41 267.664 378.178 271.66 382.824 271.66C383.386 271.66 383.932 271.596 384.462 271.485Z" fill="#803D3D"/>
<path d="M330.281 262.734C330.281 267.664 334.049 271.66 338.695 271.66C343.342 271.66 347.108 267.664 347.108 262.734C347.108 257.803 343.342 253.807 338.695 253.807C334.049 253.807 330.281 257.803 330.281 262.734Z" fill="#C64F4F"/>
<path d="M337.058 271.485C335.841 266.31 335.129 259.691 334.74 254.9C335.924 254.226 337.258 253.807 338.696 253.807C343.343 253.807 347.11 257.804 347.11 262.734C347.11 267.664 343.342 271.66 338.696 271.66C338.135 271.66 337.588 271.596 337.058 271.485Z" fill="#803D3D"/>
<path d="M375.568 231.512H360.76H345.952L338.623 248.502L339.855 265.317C340.514 274.29 345.977 289.784 353.665 293.592C355.949 294.723 358.368 295.477 360.76 295.477C363.151 295.477 365.571 294.723 367.855 293.592C375.542 289.784 381.006 274.292 381.664 265.317L382.897 248.502L375.568 231.512Z" fill="#FF7E6E"/>
<path d="M368.355 252.841C368.355 252.841 373.324 254.319 378.946 252.841" stroke="#2F2F35" stroke-width="1.3362" stroke-miterlimit="10" stroke-linecap="round"/>
<path d="M366.751 243.178C366.751 243.178 374.008 241.897 378.371 244.565" stroke="#2F2F35" stroke-width="2.6723" stroke-miterlimit="10" stroke-linecap="round"/>
<path d="M353.164 252.841C353.164 252.841 348.195 254.319 342.572 252.841" stroke="#2F2F35" stroke-width="1.3362" stroke-miterlimit="10" stroke-linecap="round"/>
<path d="M354.769 243.178C354.769 243.178 347.511 241.897 343.149 244.565" stroke="#2F2F35" stroke-width="2.6723" stroke-miterlimit="10" stroke-linecap="round"/>
<path opacity="0.52" d="M348.959 267.492C347.992 250.502 345.952 231.512 345.952 231.512L338.623 248.502L339.015 253.84C338.906 253.836 338.805 253.806 338.696 253.806C334.05 253.806 330.283 257.803 330.283 262.732C330.283 267.663 334.05 271.659 338.696 271.659C339.432 271.659 340.134 271.527 340.814 271.339C342.795 280.023 347.516 290.546 353.666 293.592C355.95 294.723 358.37 295.477 360.761 295.477C360.761 295.477 349.927 284.484 348.959 267.492Z" fill="#FFF6E7"/>
<path d="M411.347 592.655L243.884 538.749C221.648 531.59 198.263 545.479 192.386 569.33L192.165 570.23C186.11 594.805 201.13 619.631 224.712 624.004C286.629 635.487 398.855 655.016 457.92 657.404L482.818 675.015C486.577 677.675 491.568 677.236 494.865 673.957L494.993 673.83C498.91 669.934 499.111 663.407 495.44 659.248L491.557 654.849C491.557 654.849 488.096 636.958 471.001 629.289C453.906 621.622 452.3 602.879 448.286 592.655C444.269 582.432 418.574 577.321 411.347 592.655Z" fill="#8C4242"/>
<path d="M192.386 569.33C198.263 545.478 221.649 531.59 243.883 538.749L300.674 557.03C292.12 568.353 280.837 591.338 280.496 633.994C259.761 630.419 240.578 626.947 224.71 624.004C201.128 619.631 186.109 594.804 192.163 570.23L192.386 569.33Z" fill="#EDB62B"/>
<path opacity="0.67" d="M245.213 606.805C245.213 614.05 243.575 620.887 240.687 626.936C235.079 625.916 229.714 624.932 224.712 624.004C201.129 619.631 186.11 594.804 192.165 570.23L192.386 569.33C192.913 567.188 193.587 565.129 194.384 563.156C197.213 562.519 200.144 562.177 203.151 562.177C226.381 562.179 245.213 582.158 245.213 606.805Z" fill="#A87D1D"/>
<path d="M419.376 617.362C419.376 617.362 416.968 632.252 393.682 626.936" stroke="#7B3C38" stroke-width="1.139" stroke-miterlimit="10"/>
<path opacity="0.28" d="M434.177 610.546C434.177 610.546 398.498 608.842 323.02 594.557C261.869 582.984 243.931 549.774 239.323 537.582C240.845 537.878 242.366 538.259 243.882 538.747L411.345 592.654C418.573 577.319 444.267 582.43 448.281 592.654C452.296 602.878 453.902 621.62 470.996 629.288C488.091 636.955 491.553 654.847 491.553 654.847C491.553 654.847 473.976 642.92 462.863 640.364C451.751 637.809 434.177 610.546 434.177 610.546Z" fill="#4C2A29"/>
<path d="M441.904 656.447C441.904 656.447 472.655 687.664 498.871 674.817C503.233 672.681 504.599 666.77 501.751 662.667C479.668 630.846 451.825 596.179 441.212 583.15C438.555 579.889 434.349 578.571 430.448 579.774L400.247 589.082L441.904 656.447Z" fill="#2F2F35"/>
<path d="M400.247 589.083L371.321 579.771L393.232 651.311L441.904 656.446L400.247 589.083Z" fill="#A5A5A5"/>
<path d="M310.173 592.655L477.638 538.749C499.873 531.59 523.258 545.479 529.135 569.33L529.356 570.23C535.411 594.805 520.392 619.631 496.809 624.004C434.892 635.487 322.666 655.016 263.601 657.404L238.703 675.015C234.944 677.675 229.953 677.236 226.656 673.957L226.528 673.83C222.611 669.934 222.411 663.407 226.081 659.248L229.964 654.849C229.964 654.849 233.426 636.958 250.52 629.289C267.615 621.622 269.221 602.879 273.235 592.655C277.251 582.432 302.946 577.321 310.173 592.655Z" fill="#FF7E6E"/>
<path d="M529.133 569.33C523.257 545.478 499.87 531.59 477.636 538.749L420.845 557.03C429.4 568.353 440.683 591.338 441.023 633.994C461.757 630.419 480.94 626.947 496.808 624.004C520.39 619.631 535.409 594.804 529.355 570.23L529.133 569.33Z" fill="#EDB62B"/>
<path opacity="0.67" d="M476.307 606.805C476.307 614.05 477.945 620.887 480.833 626.936C486.44 625.916 491.805 624.932 496.808 624.004C520.39 619.631 535.409 594.804 529.355 570.23L529.134 569.33C528.606 567.188 527.932 565.129 527.136 563.156C524.307 562.519 521.376 562.177 518.368 562.177C495.138 562.179 476.307 582.158 476.307 606.805Z" fill="#A87D1D"/>
<path opacity="0.28" d="M287.342 610.546C287.342 610.546 323.021 608.842 398.5 594.557C459.65 582.984 477.588 549.774 482.196 537.582C480.675 537.878 479.153 538.259 477.637 538.747L310.173 592.656C302.947 577.32 277.251 582.432 273.237 592.656C269.223 602.879 267.617 621.621 250.522 629.29C233.427 636.957 229.965 654.849 229.965 654.849C229.965 654.849 247.542 642.921 258.655 640.366C269.765 637.809 287.342 610.546 287.342 610.546Z" fill="#4C2A29"/>
<path opacity="0.57" d="M250.52 629.29L225.417 624.351C202.696 620.504 187.309 597.715 191.185 573.652L191.337 572.709C195.563 546.474 220.661 530.247 244.574 538.289L291.974 554.229" stroke="white" stroke-width="1.1139" stroke-miterlimit="10"/>
<path d="M352.15 267.214C351.248 267.214 350.718 268.324 351.272 269.08C353.786 272.504 357.113 274.597 360.772 274.597C364.431 274.597 367.759 272.504 370.273 269.08C370.827 268.324 370.297 267.214 369.395 267.214H352.15Z" fill="white"/>
<path d="M363.246 252.465V261.707C363.246 261.707 361.242 260.506 358.454 261.707" stroke="#2F2F35" stroke-width="0.8212" stroke-miterlimit="10" stroke-linecap="round"/>
<path d="M370.499 219.118H368.355V233.578H370.499V219.118Z" fill="#FF7E6E"/>
<path d="M494.656 489.375L494.745 489.635C499.765 504.379 493.752 520.792 480.665 528.072L391.238 577.808L390.797 576.596C382.918 555.001 391.159 530.541 410.155 519.139L450.426 494.967L494.656 489.375Z" fill="#FF7E6E"/>
<path opacity="0.28" d="M475.774 519.839C475.774 523.341 476.598 526.635 478.039 529.53L480.665 528.07C490.986 522.33 496.88 510.905 496.458 499.102C496.097 499.081 495.741 499.043 495.374 499.043C484.548 499.043 475.774 508.354 475.774 519.839Z" fill="#4C2A29"/>
<path d="M450.425 494.967L475.774 479.715" stroke="#4C2A29" stroke-width="1.3362" stroke-miterlimit="10" stroke-linecap="round"/>
<path d="M227.126 489.375L227.037 489.635C222.017 504.379 228.029 520.792 241.117 528.072L330.544 577.808L330.986 576.596C338.865 555.001 330.624 530.541 311.628 519.139L271.357 494.967L227.126 489.375Z" fill="#FF7E6E"/>
<path opacity="0.28" d="M246.008 519.839C246.008 523.341 245.183 526.635 243.742 529.53L241.117 528.07C230.796 522.33 224.903 510.905 225.323 499.102C225.684 499.081 226.041 499.043 226.408 499.043C237.232 499.043 246.008 508.354 246.008 519.839Z" fill="#4C2A29"/>
<path d="M271.357 494.967L246.008 479.715" stroke="#4C2A29" stroke-width="1.3362" stroke-miterlimit="10" stroke-linecap="round"/>
<path d="M320.62 572.287C320.62 572.287 325.133 546.012 310.436 537.582" stroke="#4C2A29" stroke-width="1.3362" stroke-miterlimit="10" stroke-linecap="round"/>
<path d="M400.9 572.287C400.9 572.287 396.386 546.012 411.084 537.582" stroke="#4C2A29" stroke-width="1.3362" stroke-miterlimit="10" stroke-linecap="round"/>
<path d="M279.616 656.447C279.616 656.447 248.865 687.664 222.649 674.817C218.288 672.681 216.92 666.77 219.768 662.667C241.852 630.846 269.694 596.179 280.308 583.15C282.964 579.889 287.171 578.571 291.072 579.774L321.273 589.082L279.616 656.447Z" fill="#2F2F35"/>
<path d="M321.274 589.083L350.199 579.771L328.288 651.311L279.616 656.446L321.274 589.083Z" fill="#ECECEC"/>
<path opacity="0.28" d="M309.244 608.536C317.824 607.565 328.968 606.142 342.754 604.077L350.199 579.772L321.274 589.083L309.244 608.536Z" fill="#4C2A29"/>
<path d="M288.831 634.72L272.051 661.854C271.006 663.543 269.139 664.447 267.251 664.175L267.14 664.158C263.505 663.635 261.655 659.241 263.712 656.019L280.875 629.137C281.973 627.417 283.957 626.595 285.862 627.07L285.961 627.093C289.156 627.889 290.631 631.81 288.831 634.72Z" fill="#FFF6E7"/>
<path d="M358.454 477.893H255.761L281.081 573.578H358.454H435.828L461.148 477.893H358.454Z" fill="#AFAFAF"/>
<path d="M435.828 573.579H281.081V587.515H435.828V573.579Z" fill="#8B8B8C"/>
<path d="M358.631 546.92C372.498 546.92 383.74 540.811 383.74 533.276C383.74 525.741 372.498 519.633 358.631 519.633C344.763 519.633 333.521 525.741 333.521 533.276C333.521 540.811 344.763 546.92 358.631 546.92Z" fill="#5A5A63"/>
<path d="M461.148 471.545H255.761V477.893H461.148V471.545Z" fill="#5A5A63"/>
<path d="M305.149 577.58H289.652V583.183H305.149V577.58Z" fill="#5A5A63"/>
<path d="M327.516 577.58H312.019V583.183H327.516V577.58Z" fill="#5A5A63"/>
<path d="M435.828 580.547H341.649" stroke="#0F1201" stroke-miterlimit="10"/>
<path opacity="0.54" d="M255.761 477.893L281.081 573.58H336.196C368.922 533.323 388.806 477.893 388.806 477.893L388.738 471.545H255.761V477.893Z" fill="white"/>
<path opacity="0.57" d="M255.761 477.893H461.148" stroke="#0F1201" stroke-miterlimit="10"/>
<path opacity="0.87" d="M149.068 658.446C169.636 658.446 186.309 657.551 186.309 656.446C186.309 655.342 169.636 654.446 149.068 654.446C128.5 654.446 111.827 655.342 111.827 656.446C111.827 657.551 128.5 658.446 149.068 658.446Z" fill="#515159"/>
<path d="M154.514 636.771L156.954 633.949L155.735 635.36L156.966 633.96C156.665 633.656 127.275 602.043 162.776 459.586L159.285 458.606C123.041 604.044 153.212 635.502 154.514 636.771Z" fill="#5A5A63"/>
<path d="M143.565 462.038C157.011 475.002 154.654 490.33 154.654 490.33C154.654 490.33 141.189 484.237 138.066 465.249C137.517 461.918 141.207 459.764 143.565 462.038Z" fill="#5A5A63"/>
<path d="M177.206 471.189C159.539 475.689 154.653 490.331 154.653 490.331C154.653 490.331 169.22 491.864 180.572 476.811C182.563 474.172 180.304 470.401 177.206 471.189Z" fill="#5A5A63"/>
<path d="M134.352 499.295C148.958 510.76 148.066 526.261 148.066 526.261C148.066 526.261 134.091 521.636 129.184 503.075C128.324 499.82 131.79 497.284 134.352 499.295Z" fill="#5A5A63"/>
<path d="M168.691 504.812C151.54 511.173 148.066 526.26 148.066 526.26C148.066 526.26 162.704 526.232 172.571 510.046C174.301 507.21 171.697 503.697 168.691 504.812Z" fill="#5A5A63"/>
<path d="M128.513 531.965C143.879 542.252 144.07 557.782 144.07 557.782C144.07 557.782 129.812 554.266 123.623 536.141C122.539 532.963 125.82 530.161 128.513 531.965Z" fill="#5A5A63"/>
<path d="M163.143 534.774C146.482 542.465 144.07 557.782 144.07 557.782C144.07 557.782 158.666 556.605 167.378 539.688C168.905 536.723 166.064 533.424 163.143 534.774Z" fill="#5A5A63"/>
<path d="M172.368 433.493C172.673 452.767 160.531 461.443 160.531 461.443C160.531 461.443 155.495 446.86 166.397 431.439C168.308 428.736 172.315 430.113 172.368 433.493Z" fill="#5A5A63"/>
<path d="M167.175 573.61H128.134V655.555H167.175V573.61Z" fill="#EDB62B"/>
<path opacity="0.67" d="M167.175 573.61H151.578V655.555H167.175V573.61Z" fill="#A87D1D"/>
<path d="M184.319 182.775L170.272 186.483C168.234 187.021 166.17 185.703 165.664 183.541L164.312 177.773L185.741 172.118L187.093 177.886C187.599 180.05 186.358 182.238 184.319 182.775Z" fill="#A87D1D"/>
<path d="M236.52 165.001L115.165 197.023C113.059 197.578 110.928 196.218 110.403 193.983L90.3895 108.601C89.8664 106.367 91.148 104.105 93.2546 103.549L214.61 71.5269C216.716 70.9718 218.848 72.3317 219.371 74.5667L239.384 159.949C239.909 162.184 238.626 164.445 236.52 165.001Z" fill="#A87D1D"/>
<path d="M232.924 150.245L229.54 160.561L121.868 188.972L112.307 182.072L92.4749 97.4736L213.093 65.6462L232.924 150.245Z" fill="#EDB62B"/>
<path d="M151.229 81.9722L92.4678 97.4751L112.294 182.071L171.056 166.568L151.229 81.9722Z" fill="white"/>
<path d="M147.598 89.2105L99.3173 101.948L100.011 104.907L148.291 92.1691L147.598 89.2105Z" fill="#AFAFAF"/>
<path d="M149.827 98.6613L101.546 111.404L102.24 114.363L150.52 101.62L149.827 98.6613Z" fill="#AFAFAF"/>
<path d="M152.034 108.142L103.754 120.88L104.447 123.838L152.728 111.101L152.034 108.142Z" fill="#AFAFAF"/>
<path d="M154.253 117.607L105.972 130.344L106.666 133.303L154.946 120.565L154.253 117.607Z" fill="#AFAFAF"/>
<path d="M156.483 127.057L108.202 139.8L108.896 142.759L157.177 130.016L156.483 127.057Z" fill="#AFAFAF"/>
<path d="M158.689 136.538L110.409 149.276L111.102 152.235L159.383 139.497L158.689 136.538Z" fill="#AFAFAF"/>
<path d="M160.908 146.003L112.627 158.741L113.321 161.7L161.601 148.962L160.908 146.003Z" fill="#AFAFAF"/>
<path d="M163.14 155.453L114.86 168.196L115.554 171.155L163.834 158.412L163.14 155.453Z" fill="#AFAFAF"/>
<path d="M213.087 65.6316L154.326 81.1409L174.16 165.737L232.922 150.228L213.087 65.6316Z" fill="white"/>
<path d="M209.012 72.9894L160.732 85.7324L161.425 88.691L209.706 75.948L209.012 72.9894Z" fill="#AFAFAF"/>
<path d="M211.223 82.4762L162.943 95.2139L163.636 98.1725L211.917 85.4348L211.223 82.4762Z" fill="#AFAFAF"/>
<path d="M213.441 91.9427L165.161 104.68L165.854 107.639L214.134 94.9013L213.441 91.9427Z" fill="#AFAFAF"/>
<path d="M215.67 101.385L167.389 114.128L168.083 117.087L216.363 104.344L215.67 101.385Z" fill="#AFAFAF"/>
<path d="M217.878 110.872L169.598 123.61L170.291 126.569L218.572 113.831L217.878 110.872Z" fill="#AFAFAF"/>
<path d="M220.096 120.339L171.816 133.077L172.509 136.035L220.79 123.298L220.096 120.339Z" fill="#AFAFAF"/>
<path d="M222.327 129.781L174.047 142.524L174.74 145.482L223.021 132.739L222.327 129.781Z" fill="#AFAFAF"/>
<path d="M224.532 139.269L176.252 152.007L176.945 154.965L225.225 142.227L224.532 139.269Z" fill="#AFAFAF"/>
<path d="M180.639 177.831L171.342 180.285C169.304 180.822 167.243 179.505 166.735 177.345L165.887 173.723L182.561 169.323L183.41 172.945C183.916 175.106 182.675 177.294 180.639 177.831Z" fill="#EDB62B"/>
<path d="M386.997 56.1853C382.175 51.3203 376.082 48.0022 369.809 45.7851C369.767 45.7702 369.671 45.7418 369.527 45.7014C363.845 44.0872 357.855 44.0872 352.173 45.7014C352.03 45.7418 351.933 45.7702 351.891 45.7851C345.618 48.0022 339.525 51.3218 334.703 56.1853C320.349 70.6651 322.681 96.9468 336.66 110.815C340.581 114.704 342.303 119.726 343.503 125.263C343.865 126.931 345.945 144.322 345.219 144.322C352.234 144.322 360.849 144.322 360.849 144.322C360.849 144.322 369.464 144.322 376.478 144.322C375.754 144.322 377.833 126.93 378.194 125.263C379.396 119.728 381.117 114.706 385.039 110.815C399.019 96.9483 401.349 70.6666 386.997 56.1853Z" fill="#EDB62B"/>
<path opacity="0.52" d="M355.228 125.263C354.028 119.728 352.305 114.706 348.386 110.815C334.407 96.9472 332.075 70.6654 346.429 56.1857C351.251 51.3207 357.343 48.0025 363.616 45.7855C363.659 45.7705 363.755 45.7421 363.898 45.7017C364.829 45.4369 365.768 45.2319 366.713 45.0539C361.891 44.1458 356.925 44.3508 352.173 45.7017C352.03 45.7421 351.933 45.7705 351.891 45.7855C345.618 48.0025 339.524 51.3222 334.703 56.1857C320.349 70.6654 322.681 96.9472 336.66 110.815C340.581 114.705 342.303 119.727 343.503 125.263C343.865 126.932 345.945 144.323 345.219 144.323C349.247 144.323 353.794 144.323 356.944 144.323C357.67 144.323 355.591 126.93 355.228 125.263Z" fill="#FFF6E7"/>
<path d="M360.85 144.322V103.763L367.579 99.6472C369.802 98.2874 369.358 94.7523 366.876 94.0582L354.632 90.6293C352.544 90.0444 352.307 87.0015 354.277 86.0606L360.849 82.9234V69.1558" stroke="#FEFEFE" stroke-width="2.2387" stroke-miterlimit="10" stroke-linecap="round"/>
<path d="M379.59 149.904C379.59 151.136 378.648 152.136 377.487 152.136H343.116C341.955 152.136 341.013 151.136 341.013 149.904C341.013 148.671 341.955 147.672 343.116 147.672H377.487C378.647 147.672 379.59 148.671 379.59 149.904Z" fill="#2F2F35"/>
<path d="M379.59 156.601C379.59 157.834 378.648 158.835 377.487 158.835H343.116C341.955 158.835 341.013 157.836 341.013 156.601C341.013 155.369 341.955 154.369 343.116 154.369H377.487C378.647 154.369 379.59 155.369 379.59 156.601Z" fill="#2F2F35"/>
<path d="M379.59 163.299C379.59 164.532 378.648 165.531 377.487 165.531H343.116C341.955 165.531 341.013 164.532 341.013 163.299C341.013 162.066 341.955 161.065 343.116 161.065H377.487C378.647 161.067 379.59 162.066 379.59 163.299Z" fill="#2F2F35"/>
<path d="M360.3 181.16C367.079 181.16 372.576 175.328 372.576 168.135H348.026C348.026 175.33 353.521 181.16 360.3 181.16Z" fill="#2F2F35"/>
<path d="M505.718 189.723V179.237H501.351C500.525 174.257 498.606 169.688 495.865 165.797L499.329 162.122L492.341 154.707L488.747 158.521C485.068 155.855 480.792 154.069 476.185 153.364V147.887H466.304V153.569C461.886 154.453 457.826 156.371 454.323 159.068L450.825 155.357L443.837 162.771L447.38 166.53C444.792 170.436 443.029 174.987 442.314 179.912H437.409V190.396H442.423C443.232 195.201 445.057 199.62 447.657 203.417L443.796 207.513L450.784 214.927L454.694 210.781C458.278 213.452 462.439 215.294 466.941 216.09V221.749H476.823V216.09C481.309 215.298 485.456 213.467 489.033 210.81L492.302 214.278L499.289 206.864L496.078 203.456C498.813 199.475 500.685 194.802 501.437 189.723H505.718ZM471.882 202.612C462.598 202.612 455.072 194.627 455.072 184.777C455.072 174.926 462.598 166.942 471.882 166.942C481.167 166.942 488.692 174.927 488.692 184.777C488.692 194.628 481.167 202.612 471.882 202.612Z" fill="#666666"/>
<path d="M545.124 229.489V223.441H542.605C542.128 220.567 541.021 217.933 539.441 215.687L541.44 213.566L537.409 209.289L535.336 211.488C533.214 209.95 530.747 208.919 528.089 208.513V205.353H522.388V208.631C519.84 209.141 517.497 210.248 515.476 211.804L513.459 209.663L509.427 213.94L511.472 216.109C509.979 218.362 508.962 220.988 508.549 223.829H505.719V229.877H508.612C509.079 232.649 510.132 235.198 511.631 237.388L509.403 239.752L513.435 244.029L515.689 241.637C517.758 243.179 520.158 244.242 522.753 244.699V247.964H528.454V244.699C531.043 244.243 533.436 243.187 535.498 241.653L537.383 243.654L541.415 239.377L539.562 237.411C541.14 235.114 542.221 232.419 542.653 229.488L545.124 229.489ZM525.604 236.925C520.249 236.925 515.906 232.318 515.906 226.635C515.906 220.953 520.248 216.346 525.604 216.346C530.961 216.346 535.302 220.952 535.302 226.635C535.302 232.318 530.961 236.925 525.604 236.925Z" fill="#9E9E9E"/>
<path d="M634.941 151.154V129.622H625.972C624.275 119.394 620.335 110.013 614.706 102.02L621.823 94.4694L607.473 79.2446L600.093 87.0747C592.538 81.6008 583.757 77.9326 574.296 76.483V65.2361H554.002V76.9049C544.931 78.7195 536.59 82.66 529.397 88.1997L522.215 80.5791L507.865 95.8039L515.142 103.525C509.825 111.546 506.207 120.892 504.739 131.006H494.663V152.538H504.962C506.624 162.406 510.372 171.481 515.71 179.278L507.781 187.691L522.13 202.916L530.159 194.399C537.52 199.888 546.063 203.67 555.309 205.302V216.925H575.603V205.302C584.816 203.676 593.334 199.916 600.678 194.459L607.391 201.582L621.741 186.357L615.146 179.36C620.764 171.184 624.61 161.589 626.151 151.156L634.941 151.154ZM565.455 177.628C546.389 177.628 530.933 161.228 530.933 141.001C530.933 120.772 546.389 104.373 565.455 104.373C584.521 104.373 599.978 120.772 599.978 141.001C599.978 161.228 584.521 177.628 565.455 177.628Z" fill="#8B8B8C"/>
<path d="M564.802 162.575C575.99 162.575 585.06 152.952 585.06 141.082C585.06 129.212 575.99 119.589 564.802 119.589C553.615 119.589 544.545 129.212 544.545 141.082C544.545 152.952 553.615 162.575 564.802 162.575Z" fill="#666666"/>
<path d="M170.208 251.03C126.681 253.831 92.8471 281.507 94.6392 312.845C96.4313 344.183 133.169 367.317 176.696 364.515C176.728 364.514 176.76 364.511 176.793 364.509C181.076 364.23 184.073 359.839 183.014 355.427C182.499 353.28 182.209 351.032 182.175 348.71C181.953 333.772 192.844 320.938 206.868 319.593C217.046 318.618 226.343 323.694 231.71 331.955C234.357 336.031 239.986 336.32 242.85 332.41C249.394 323.473 252.871 313.298 252.264 302.702C250.474 271.362 213.736 248.228 170.208 251.03Z" fill="#5A5A63"/>
<path d="M169.919 245.959C126.392 248.759 92.558 276.435 94.3501 307.774C96.1422 339.112 132.88 362.246 176.408 359.444C176.44 359.442 176.473 359.44 176.505 359.438C180.789 359.158 183.785 354.767 182.726 350.356C182.211 348.209 181.921 345.961 181.887 343.639C181.666 328.701 192.557 315.867 206.58 314.522C216.758 313.547 226.055 318.623 231.422 326.884C234.07 330.96 239.699 331.249 242.562 327.338C249.106 318.401 252.583 308.227 251.977 297.631C250.183 266.291 213.446 243.157 169.919 245.959Z" fill="#8B8B8C"/>
<path d="M154.546 334.797C154.864 340.364 150.869 345.151 145.622 345.489C140.375 345.827 135.863 341.588 135.545 336.021C135.226 330.454 139.222 325.667 144.469 325.329C149.715 324.991 154.227 329.231 154.546 334.797Z" fill="#EDB62B"/>
<path d="M128.616 315.685C128.935 321.251 124.939 326.038 119.692 326.376C114.445 326.715 109.933 322.475 109.615 316.908C109.296 311.342 113.292 306.555 118.539 306.216C123.787 305.878 128.297 310.118 128.616 315.685Z" fill="#EDB62B"/>
<path d="M136.24 282.255C136.559 287.822 132.563 292.609 127.316 292.947C122.069 293.285 117.557 289.045 117.239 283.479C116.92 277.912 120.916 273.125 126.163 272.787C131.411 272.449 135.923 276.688 136.24 282.255Z" fill="#EDB62B"/>
<path d="M168.375 264.188C168.694 269.754 164.698 274.542 159.451 274.88C154.205 275.218 149.693 270.978 149.374 265.411C149.055 259.845 153.051 255.058 158.298 254.72C163.545 254.381 168.057 258.621 168.375 264.188Z" fill="#EDB62B"/>
<path d="M204.571 264.681C204.89 270.248 200.894 275.035 195.647 275.373C190.401 275.711 185.889 271.472 185.57 265.905C185.251 260.339 189.247 255.551 194.494 255.213C199.741 254.875 204.253 259.115 204.571 264.681Z" fill="#EDB62B"/>
<path d="M235.122 282.949C235.44 288.516 231.444 293.303 226.198 293.641C220.951 293.979 216.439 289.739 216.121 284.173C215.802 278.606 219.798 273.819 225.044 273.481C230.293 273.143 234.805 277.382 235.122 282.949Z" fill="#EDB62B"/>
<path opacity="0.68" d="M212.281 251.94L203.321 271.831C202.139 271.769 200.997 272.482 200.526 273.711L200.501 273.779C199.903 275.334 200.608 277.11 202.076 277.744L202.916 278.108C202.751 278.05 201.896 277.943 200.094 280.727C200.093 280.729 200.093 280.729 200.093 280.73C199.985 280.898 199.872 281.079 199.756 281.269C199.745 281.288 199.734 281.306 199.721 281.326C199.614 281.504 199.502 281.692 199.388 281.89C199.366 281.93 199.343 281.969 199.319 282.01C199.212 282.197 199.103 282.393 198.992 282.597C198.959 282.657 198.926 282.719 198.892 282.781C198.786 282.977 198.679 283.181 198.569 283.393C198.525 283.477 198.481 283.564 198.436 283.651C198.332 283.856 198.225 284.068 198.116 284.288C198.063 284.396 198.009 284.506 197.954 284.619C197.85 284.833 197.744 285.051 197.635 285.28C197.572 285.414 197.507 285.554 197.441 285.694C197.337 285.917 197.232 286.143 197.126 286.378C197.053 286.539 196.978 286.707 196.902 286.876C196.798 287.111 196.692 287.347 196.585 287.594C196.503 287.78 196.42 287.976 196.337 288.169C196.231 288.415 196.125 288.662 196.017 288.921C195.925 289.139 195.831 289.37 195.736 289.599C195.632 289.852 195.527 290.103 195.42 290.366C195.317 290.621 195.212 290.887 195.106 291.152C195.002 291.415 194.897 291.674 194.79 291.947C194.677 292.235 194.562 292.537 194.446 292.835C194.342 293.105 194.239 293.37 194.132 293.651C194.008 293.979 193.878 294.326 193.751 294.669C193.648 294.945 193.546 295.215 193.441 295.502C193.298 295.888 193.152 296.295 193.005 296.699C192.911 296.961 192.817 297.212 192.722 297.481C192.548 297.966 192.371 298.475 192.191 298.982C192.117 299.196 192.043 299.399 191.967 299.617C191.711 300.356 191.448 301.118 191.18 301.909C190.463 304.029 189.624 306.524 188.699 309.292C188.592 309.614 188.487 309.926 188.376 310.256C188.236 310.674 188.09 311.113 187.946 311.545C187.826 311.904 187.709 312.256 187.586 312.624C187.397 313.191 187.203 313.777 187.008 314.364C186.921 314.627 186.836 314.883 186.747 315.149C186.554 315.729 186.357 316.325 186.159 316.922C186.059 317.225 185.959 317.523 185.858 317.831C185.672 318.391 185.483 318.965 185.292 319.538C185.175 319.893 185.06 320.24 184.941 320.599C184.723 321.262 184.5 321.936 184.276 322.614C184.191 322.868 184.109 323.118 184.025 323.375C183.798 324.067 183.566 324.768 183.334 325.473C183.235 325.774 183.136 326.071 183.038 326.373C182.822 327.029 182.603 327.694 182.385 328.36C182.273 328.7 182.164 329.035 182.051 329.377C181.818 330.083 181.584 330.799 181.35 331.515C181.248 331.823 181.148 332.129 181.048 332.438C180.817 333.143 180.584 333.855 180.352 334.569C180.235 334.925 180.119 335.278 180.003 335.635C179.795 336.275 179.585 336.919 179.375 337.563C179.225 338.02 179.077 338.476 178.928 338.935C178.747 339.489 178.565 340.047 178.385 340.603C178.213 341.133 178.041 341.661 177.867 342.192C177.674 342.788 177.479 343.384 177.286 343.981C177.185 344.294 177.083 344.604 176.982 344.918C175.401 349.79 173.808 354.735 172.24 359.632C173.622 359.595 175.012 359.534 176.409 359.444C176.442 359.443 176.474 359.44 176.507 359.438C180.79 359.158 183.786 354.768 182.728 350.356C182.213 348.209 181.922 345.961 181.889 343.639C181.695 330.565 190.012 319.104 201.492 315.544C202.761 312.63 203.894 310.015 204.843 307.808C214.942 284.345 212.432 282.241 212.115 282.078L212.955 282.442C214.421 283.075 216.095 282.327 216.693 280.771L216.718 280.704C217.277 279.248 216.687 277.613 215.408 276.887L222.123 256.407C219.018 254.74 215.731 253.246 212.281 251.94Z" fill="#2F2F35"/>
<path opacity="0.42" d="M134.593 280.709C134.725 283.037 133.055 285.04 130.861 285.181C128.667 285.322 126.779 283.549 126.646 281.221C126.514 278.893 128.184 276.89 130.378 276.75C132.572 276.609 134.459 278.382 134.593 280.709Z" fill="white"/>
<path opacity="0.42" d="M166.748 263.004C166.881 265.332 165.21 267.335 163.016 267.476C160.822 267.616 158.934 265.844 158.801 263.516C158.669 261.188 160.34 259.185 162.534 259.044C164.727 258.902 166.614 260.675 166.748 263.004Z" fill="white"/>
<path opacity="0.42" d="M200.795 262.101C200.928 264.429 199.257 266.432 197.063 266.572C194.869 266.713 192.981 264.94 192.849 262.612C192.716 260.285 194.387 258.282 196.581 258.141C198.775 258 200.661 259.773 200.795 262.101Z" fill="white"/>
<path opacity="0.42" d="M124.603 312.705C124.736 315.032 123.065 317.035 120.871 317.176C118.677 317.317 116.789 315.544 116.656 313.216C116.524 310.888 118.195 308.885 120.389 308.745C122.583 308.604 124.469 310.377 124.603 312.705Z" fill="white"/>
<path opacity="0.42" d="M152.819 331.867C152.951 334.194 151.28 336.198 149.086 336.338C146.892 336.479 145.004 334.706 144.872 332.378C144.739 330.051 146.41 328.047 148.604 327.907C150.798 327.766 152.685 329.539 152.819 331.867Z" fill="white"/>
<path d="M247.083 245.932C247.083 245.932 260.069 238.401 260.901 226.762C260.849 219.884 258.033 214.239 258.033 214.239L256.255 221.327C256.255 221.327 255.278 210.193 247.784 204.813C240.289 199.433 242.134 200.944 242.134 200.944C242.134 200.944 248.427 209.805 241.441 224.499C234.456 239.192 243.272 244.286 243.272 244.286L247.083 245.932Z" fill="#EDB62B"/>
<path d="M246.28 241.161C246.28 241.161 243.931 228.383 249.299 221.516C242.321 230.902 240.88 238.443 242.633 244.536C246.28 241.161 246.28 241.161 246.28 241.161Z" fill="#A87D1D"/>
<path d="M240.007 243.686C241.151 241.23 243.888 240.127 246.28 241.161L246.323 241.179L246.365 241.197C248.756 242.231 249.99 245.048 249.191 247.654L240.652 275.487L234.222 272.709L227.792 269.931L240.007 243.686Z" fill="white"/>
<path d="M226.798 276.153L237.677 280.852C239.143 281.486 240.817 280.738 241.415 279.181L241.44 279.113C242.038 277.556 241.333 275.782 239.865 275.147L228.987 270.448C227.52 269.814 225.847 270.562 225.249 272.119L225.223 272.187C224.627 273.743 225.332 275.518 226.798 276.153Z" fill="#CCCCCC"/>
<path d="M227.671 276.528L232.238 278.5L236.805 280.473C236.805 280.473 240.271 281.342 229.565 306.216C221.608 324.704 201.142 371.071 189.349 395.845C188.246 398.162 184.938 396.733 185.674 394.257C193.545 367.789 209.426 319.441 215.903 300.315C224.619 274.582 227.671 276.528 227.671 276.528Z" fill="#2F2F35"/>
<path d="M203.314 365.561C198.216 376.838 193.295 387.554 189.347 395.846C188.245 398.164 184.937 396.735 185.673 394.259C188.308 385.398 191.842 374.084 195.618 362.236L203.314 365.561Z" fill="white"/>
<path opacity="0.75" d="M201.703 343.326C218.482 321.292 224.791 279.318 224.819 279.136C222.956 282.014 220.083 287.98 215.903 300.318C212.738 309.663 207.328 325.987 201.703 343.326Z" fill="white"/>
<path d="M526.556 291.651L529.528 298.042L536.175 299.067L531.366 304.041L532.501 311.066L526.556 307.75L520.61 311.066L521.746 304.041L516.937 299.067L523.584 298.042L526.556 291.651Z" fill="#9E9E9E"/>
<path d="M612.139 282.723L616.29 291.647L625.572 293.078L618.856 300.024L620.441 309.832L612.139 305.202L603.838 309.832L605.423 300.024L598.707 293.078L607.989 291.647L612.139 282.723Z" fill="#666666"/>
<path d="M586.165 416.455L588.482 421.435L593.663 422.234L589.914 426.112L590.8 431.586L586.165 429.001L581.532 431.586L582.416 426.112L578.667 422.234L583.848 421.435L586.165 416.455Z" fill="#9E9E9E"/>
<path d="M503.504 382.713L507.655 391.637L516.936 393.067L510.22 400.013L511.806 409.82L503.504 405.19L495.202 409.82L496.788 400.013L490.071 393.067L499.353 391.637L503.504 382.713Z" fill="#666666"/>
<path d="M583.097 403.801C606.826 393.705 618.348 365.111 608.833 339.935C599.318 314.759 572.368 302.533 548.639 312.629C524.91 322.724 513.387 351.318 522.903 376.494C532.418 401.671 559.367 413.896 583.097 403.801Z" fill="#EDB62B"/>
<g opacity="0.67">
<path d="M553.398 405.51C569.75 410.351 586.494 405.237 597.916 393.61C590.181 395.809 581.808 395.917 573.536 393.468C548.912 386.178 534.52 359.09 541.391 332.963C543.699 324.186 548.121 316.642 553.899 310.76C538.61 315.107 525.816 327.659 521.253 345.008C514.384 371.132 528.775 398.22 553.398 405.51Z" fill="#A87D1D"/>
</g>
<path opacity="0.52" d="M578.28 310.902C575.975 310.22 573.66 309.735 571.355 309.437C570.148 314.03 569.489 318.864 569.489 323.865C569.489 349.43 586.358 370.8 608.927 376.168C609.496 374.624 609.998 373.037 610.427 371.406C617.295 345.28 602.903 318.19 578.28 310.902Z" fill="#FFF6E7"/>
<path d="M519.71 354.165C501.753 346.742 490.583 340.026 491.522 336.458C493.083 330.522 527.554 335.541 568.516 347.668C609.478 359.794 641.417 374.437 639.857 380.373C638.922 383.931 626.17 383.554 607.284 380.071" stroke="#666666" stroke-width="2" stroke-miterlimit="10"/>
</svg>
