<svg width="72" height="29" viewBox="0 0 72 29" fill="none" xmlns="http://www.w3.org/2000/svg">
<path d="M17.7653 11.0476L10.7518 5.52381L3.74028 11.0476V5.52381L10.7528 0L17.7663 5.52381L17.7653 11.0476Z" fill="#FF9800"/>
<path d="M2.75568 22.8755C2.4053 22.8755 2.10464 22.7501 1.85369 22.4991C1.60275 22.2482 1.47727 21.9475 1.47727 21.5971C1.47727 21.2468 1.60275 20.9461 1.85369 20.6951C2.10464 20.4442 2.4053 20.3187 2.75568 20.3187C3.10606 20.3187 3.40672 20.4442 3.65767 20.6951C3.90862 20.9461 4.03409 21.2468 4.03409 21.5971C4.03409 21.8291 3.97491 22.0422 3.85653 22.2363C3.7429 22.4305 3.58902 22.5867 3.39489 22.7051C3.20549 22.8187 2.99242 22.8755 2.75568 22.8755ZM11.4737 22.9892C10.451 22.9892 9.57031 22.7477 8.83168 22.2647C8.09304 21.7818 7.52486 21.1165 7.12713 20.269C6.7294 19.4215 6.53054 18.4532 6.53054 17.3642C6.53054 16.2562 6.73414 15.2785 7.14134 14.4309C7.55327 13.5787 8.12618 12.9134 8.86009 12.4352C9.59872 11.9522 10.4605 11.7108 11.4453 11.7108C12.2124 11.7108 12.9036 11.8528 13.5192 12.1369C14.1347 12.421 14.639 12.8187 15.032 13.3301C15.425 13.8415 15.6688 14.438 15.7635 15.1199H14.0874C13.9595 14.6227 13.6754 14.1824 13.2351 13.7988C12.7995 13.4106 12.2124 13.2165 11.4737 13.2165C10.8203 13.2165 10.2474 13.3869 9.75497 13.7278C9.26728 14.064 8.88613 14.5398 8.61151 15.1554C8.34162 15.7662 8.20668 16.4835 8.20668 17.3074C8.20668 18.1502 8.33925 18.8841 8.6044 19.5091C8.87429 20.1341 9.25308 20.6194 9.74077 20.965C10.2332 21.3107 10.8108 21.4835 11.4737 21.4835C11.9093 21.4835 12.3047 21.4077 12.6598 21.2562C13.0149 21.1047 13.3156 20.8869 13.5618 20.6028C13.808 20.3187 13.9832 19.9778 14.0874 19.5801H15.7635C15.6688 20.224 15.4344 20.804 15.0604 21.3201C14.6911 21.8315 14.201 22.2387 13.5902 22.5417C12.9841 22.84 12.2786 22.9892 11.4737 22.9892ZM22.6456 22.9892C21.6607 22.9892 20.7966 22.7548 20.0533 22.2861C19.3146 21.8173 18.737 21.1615 18.3203 20.3187C17.9084 19.4759 17.7024 18.4911 17.7024 17.3642C17.7024 16.2278 17.9084 15.2359 18.3203 14.3883C18.737 13.5408 19.3146 12.8826 20.0533 12.4139C20.7966 11.9451 21.6607 11.7108 22.6456 11.7108C23.6304 11.7108 24.4922 11.9451 25.2308 12.4139C25.9742 12.8826 26.5518 13.5408 26.9638 14.3883C27.3804 15.2359 27.5888 16.2278 27.5888 17.3642C27.5888 18.4911 27.3804 19.4759 26.9638 20.3187C26.5518 21.1615 25.9742 21.8173 25.2308 22.2861C24.4922 22.7548 23.6304 22.9892 22.6456 22.9892ZM22.6456 21.4835C23.3937 21.4835 24.0092 21.2917 24.4922 20.9082C24.9751 20.5247 25.3326 20.0204 25.5646 19.3954C25.7966 18.7704 25.9126 18.0933 25.9126 17.3642C25.9126 16.635 25.7966 15.9556 25.5646 15.3258C25.3326 14.6961 24.9751 14.1871 24.4922 13.7988C24.0092 13.4106 23.3937 13.2165 22.6456 13.2165C21.8975 13.2165 21.282 13.4106 20.799 13.7988C20.3161 14.1871 19.9586 14.6961 19.7266 15.3258C19.4946 15.9556 19.3786 16.635 19.3786 17.3642C19.3786 18.0933 19.4946 18.7704 19.7266 19.3954C19.9586 20.0204 20.3161 20.5247 20.799 20.9082C21.282 21.2917 21.8975 21.4835 22.6456 21.4835ZM37.0224 18.3017V11.8528H38.6985V22.7619H37.0224V20.9153H36.9087C36.6531 21.4693 36.2553 21.9404 35.7156 22.3287C35.1758 22.7122 34.494 22.904 33.6701 22.904C32.9883 22.904 32.3822 22.7548 31.8519 22.4565C31.3216 22.1535 30.9049 21.6989 30.6019 21.0929C30.2989 20.4821 30.1474 19.7127 30.1474 18.7846V11.8528H31.8235V18.671C31.8235 19.4665 32.046 20.1009 32.4911 20.5744C32.9409 21.0479 33.5138 21.2846 34.2099 21.2846C34.6265 21.2846 35.0503 21.1781 35.4812 20.965C35.9168 20.752 36.2814 20.4253 36.5749 19.9849C36.8732 19.5446 37.0224 18.9835 37.0224 18.3017ZM41.7685 22.7619V11.8528H43.3878V13.5005H43.5014C43.7003 12.9608 44.0601 12.5228 44.581 12.1866C45.1018 11.8504 45.6889 11.6824 46.3423 11.6824C46.4654 11.6824 46.6193 11.6847 46.804 11.6895C46.9886 11.6942 47.1283 11.7013 47.223 11.7108V13.4153C47.1662 13.4011 47.036 13.3798 46.8324 13.3514C46.6335 13.3183 46.4228 13.3017 46.2003 13.3017C45.67 13.3017 45.1965 13.4129 44.7798 13.6355C44.3679 13.8533 44.0412 14.1563 43.7997 14.5446C43.563 14.9281 43.4446 15.3661 43.4446 15.8585V22.7619H41.7685ZM56.9371 14.296L55.4315 14.7221C55.3368 14.4712 55.1971 14.2273 55.0124 13.9906C54.8325 13.7491 54.5863 13.5503 54.2738 13.394C53.9613 13.2378 53.5612 13.1596 53.0735 13.1596C52.4059 13.1596 51.8496 13.3135 51.4045 13.6213C50.9641 13.9243 50.744 14.3102 50.744 14.779C50.744 15.1956 50.8955 15.5247 51.1985 15.7662C51.5015 16.0076 51.975 16.2089 52.619 16.3699L54.2383 16.7676C55.2137 17.0043 55.9405 17.3665 56.4187 17.8542C56.8969 18.3372 57.136 18.9598 57.136 19.7221C57.136 20.3471 56.9561 20.9058 56.5962 21.3983C56.2411 21.8907 55.744 22.279 55.1048 22.563C54.4656 22.8471 53.7222 22.9892 52.8746 22.9892C51.762 22.9892 50.841 22.7477 50.1119 22.2647C49.3827 21.7818 48.921 21.0763 48.7269 20.1483L50.3178 19.7505C50.4693 20.3377 50.7558 20.778 51.1772 21.0716C51.6033 21.3651 52.1597 21.5119 52.8462 21.5119C53.6275 21.5119 54.2478 21.3462 54.707 21.0147C55.171 20.6786 55.4031 20.2761 55.4031 19.8074C55.4031 19.4286 55.2705 19.1113 55.0053 18.8557C54.7402 18.5952 54.333 18.4011 53.7837 18.2733L51.9656 17.8471C50.9665 17.6104 50.2326 17.2434 49.7638 16.7463C49.2998 16.2444 49.0678 15.617 49.0678 14.8642C49.0678 14.2486 49.2406 13.7041 49.5863 13.2307C49.9367 12.7572 50.4125 12.3855 51.0138 12.1156C51.6199 11.8457 52.3065 11.7108 53.0735 11.7108C54.1531 11.7108 55.0006 11.9475 55.6161 12.421C56.2364 12.8945 56.6767 13.5195 56.9371 14.296ZM64.233 22.9892C63.1818 22.9892 62.2751 22.7572 61.5128 22.2932C60.7552 21.8244 60.1705 21.171 59.7585 20.3329C59.3513 19.4901 59.1477 18.51 59.1477 17.3926C59.1477 16.2752 59.3513 15.2903 59.7585 14.438C60.1705 13.581 60.7434 12.9134 61.4773 12.4352C62.2159 11.9522 63.0777 11.7108 64.0625 11.7108C64.6307 11.7108 65.1918 11.8055 65.7457 11.9949C66.2997 12.1843 66.804 12.492 67.2585 12.9182C67.7131 13.3396 68.0753 13.8983 68.3452 14.5943C68.6151 15.2903 68.75 16.1473 68.75 17.1653V17.8755H60.3409V16.4267H67.0455C67.0455 15.8111 66.9223 15.2619 66.6761 14.779C66.4347 14.296 66.089 13.9148 65.6392 13.6355C65.1941 13.3561 64.6686 13.2165 64.0625 13.2165C63.3949 13.2165 62.8172 13.3822 62.3295 13.7136C61.8466 14.0403 61.4749 14.4665 61.2145 14.992C60.9541 15.5176 60.8239 16.081 60.8239 16.6824V17.6483C60.8239 18.4721 60.9659 19.1705 61.25 19.7434C61.5388 20.3116 61.9389 20.7449 62.4503 21.0432C62.9616 21.3367 63.5559 21.4835 64.233 21.4835C64.6733 21.4835 65.071 21.4219 65.4261 21.2988C65.786 21.171 66.0961 20.9816 66.3565 20.7307C66.617 20.475 66.8182 20.1577 66.9602 19.779L68.5795 20.2335C68.4091 20.7827 68.1226 21.2657 67.7202 21.6824C67.3177 22.0943 66.8205 22.4163 66.2287 22.6483C65.6368 22.8755 64.9716 22.9892 64.233 22.9892Z" fill="black"/>
</svg>
